<?xml version="1.0" standalone="no"?>
<!DOCTYPE svg PUBLIC "-//W3C//DTD SVG 20010904//EN"
 "http://www.w3.org/TR/2001/REC-SVG-20010904/DTD/svg10.dtd">
<svg version="1.0" xmlns="http://www.w3.org/2000/svg"
 width="480.000000pt" height="480.000000pt" viewBox="0 0 480.000000 480.000000"
 preserveAspectRatio="xMidYMid meet">
<metadata>
Created by potrace 1.16, written by Peter Selinger 2001-2019
</metadata>
<g transform="translate(0.000000,480.000000) scale(0.100000,-0.100000)"
fill="#000000" stroke="none">
<path d="M1550 3571 c0 -4 11 -28 24 -52 83 -155 100 -185 105 -189 4 -3 21
-34 40 -70 18 -36 52 -96 75 -135 24 -38 56 -95 71 -125 16 -30 34 -62 41 -70
6 -8 27 -44 46 -80 20 -36 47 -85 62 -110 15 -25 32 -57 39 -72 6 -15 17 -30
23 -32 10 -4 112 140 158 221 6 11 -47 130 -64 143 -4 3 -32 52 -62 110 -31
58 -68 125 -82 150 -14 25 -26 49 -26 53 0 4 137 7 305 7 l305 -2 -29 -51
c-16 -29 -48 -86 -71 -127 -23 -41 -60 -109 -83 -150 -22 -41 -51 -91 -64
-110 -13 -19 -23 -40 -23 -46 0 -6 -8 -22 -18 -35 -18 -23 -49 -78 -159 -281
l-48 -88 -180 -2 c-99 -1 -192 -2 -207 -2 -15 -1 -33 -8 -41 -16 -12 -13 -127
-212 -222 -385 -15 -27 -46 -81 -70 -120 -63 -104 -87 -155 -81 -171 4 -12 64
-14 354 -14 l349 0 63 113 c35 61 91 161 124 220 l61 108 310 3 c171 3 325 6
344 8 31 3 36 -1 56 -37 11 -22 35 -65 52 -95 l32 -55 -372 3 c-205 1 -381 0
-392 -2 -12 -3 -32 -29 -49 -63 -16 -32 -44 -83 -63 -114 -58 -98 -123 -89
637 -89 553 0 672 2 676 13 3 8 -33 81 -81 162 -47 81 -85 149 -85 151 0 1
-21 38 -46 81 -26 43 -59 102 -74 132 l-28 53 47 47 c79 80 121 152 162 277
34 103 34 345 -1 475 -7 24 -16 49 -20 54 -5 6 -8 14 -9 18 -1 34 -68 133
-136 201 -63 64 -98 90 -165 123 -151 73 -148 73 -869 73 -353 0 -641 -4 -641
-9z m1336 -274 c102 -37 181 -109 228 -207 31 -64 31 -67 31 -220 0 -144 -2
-159 -24 -205 -14 -27 -36 -64 -50 -82 l-25 -31 -75 131 c-70 125 -163 291
-241 432 -19 35 -41 70 -48 77 -6 6 -12 16 -12 21 0 5 -8 21 -19 35 -10 15
-21 37 -25 49 l-7 23 113 -4 c66 -2 130 -10 154 -19z m-256 -547 c4 -3 13 -18
21 -35 16 -31 52 -97 120 -218 22 -38 39 -70 39 -70 0 -1 -89 -2 -198 -2
l-199 0 30 50 c17 28 41 70 54 95 77 143 118 210 122 198 2 -7 7 -15 11 -18z
m-679 -593 c-2 -14 -36 -82 -48 -95 -7 -7 -13 -19 -13 -25 -1 -32 -29 -48 -84
-50 -31 -2 -55 1 -54 4 2 4 23 43 48 87 45 81 45 81 90 85 55 4 62 3 61 -6z"/>
<path d="M794 1617 c-2 -7 -3 -78 -2 -157 l3 -145 41 -3 41 -3 -3 50 -2 50 46
7 c64 10 102 48 102 104 0 54 -14 79 -55 96 -44 18 -164 19 -171 1z"/>
<path d="M1289 1624 c0 -5 0 -76 0 -159 l0 -150 41 -3 42 -3 -2 43 c-3 83 -2
86 23 56 43 -51 57 -72 57 -85 0 -9 15 -13 45 -13 25 0 45 4 45 10 0 5 -18 34
-39 65 l-39 56 24 25 c21 20 25 32 22 71 -4 67 -35 87 -139 92 -43 1 -79 -1
-80 -5z"/>
<path d="M1797 1624 c-4 -4 -7 -76 -7 -161 l0 -154 98 3 c103 3 98 0 93 53 -1
11 -14 15 -56 15 -55 0 -55 0 -55 31 0 30 1 30 45 28 53 -4 65 6 58 44 -5 25
-9 27 -54 27 -45 0 -49 2 -49 25 0 22 4 24 58 27 56 3 57 3 57 33 l0 30 -90 3
c-50 1 -94 0 -98 -4z"/>
<path d="M2257 1623 c-3 -4 -4 -75 -3 -158 l1 -150 43 -3 42 -3 0 54 c0 29 3
57 6 60 4 4 24 -20 46 -53 36 -57 41 -60 78 -60 45 0 51 13 22 51 -10 13 -32
47 -50 76 l-31 51 22 24 c37 40 77 96 77 107 0 6 -17 11 -39 11 -32 0 -43 -6
-64 -32 -13 -18 -35 -45 -48 -60 l-24 -27 0 57 0 57 -37 3 c-20 2 -38 -1 -41
-5z"/>
<path d="M2776 1607 c-20 -20 -26 -36 -26 -70 0 -48 16 -69 84 -103 43 -21 56
-42 35 -55 -16 -11 -78 -2 -96 13 -19 15 -33 0 -33 -37 0 -32 3 -35 42 -46 81
-21 158 6 172 62 13 51 -8 88 -71 124 -33 19 -52 37 -53 49 0 16 6 18 53 12
50 -7 54 -5 65 18 16 35 -6 49 -83 54 -58 4 -66 2 -89 -21z"/>
<path d="M3220 1471 l0 -161 40 0 40 0 0 63 0 62 56 3 55 3 -2 -63 -3 -63 42
-3 43 -3 -3 158 -3 158 -40 0 -40 0 0 -55 0 -55 -52 -3 -52 -3 -3 58 -3 58
-37 3 -38 3 0 -160z"/>
<path d="M3840 1609 c-10 -18 -96 -258 -103 -284 -1 -6 18 -10 43 -10 42 0 45
2 50 30 5 28 8 30 57 33 51 3 52 3 61 -30 7 -30 12 -33 50 -36 27 -2 42 1 42
8 0 12 -31 108 -77 238 l-26 72 -43 0 c-34 0 -46 -5 -54 -21z"/>
</g>
</svg>
